<?xml version="1.0" encoding="utf-8"?>
<!-- Generator: Adobe Illustrator 27.5.0, SVG Export Plug-In . SVG Version: 6.00 Build 0)  -->
<svg version="1.1" id="Capa_1" xmlns="http://www.w3.org/2000/svg" xmlns:xlink="http://www.w3.org/1999/xlink" x="0px" y="0px"
	 viewBox="0 0 2122 2122" style="enable-background:new 0 0 2122 2122;" xml:space="preserve">
<g>
	<path style="fill:#689941;" d="M1809.661,770.245c-2.169,56.528-20.962,112.349-56.803,156.25
		c-29.074,35.612-68.002,64.528-86.333,106.688c-12.378,28.469-14.059,60.241-20.354,90.641
		c-6.295,30.398-19.149,62.052-45.805,77.965c-7.825,4.671-16.763,7.805-25.877,7.696c-33.865-0.41-51.499-45.053-40.371-77.04
		c11.128-31.987,39.284-54.299,62.916-78.559c60.605-62.217,96.719-147.685,99.088-234.508
		c2.392-87.686-38.709-150.117-87.517-219.38c-48.808-69.263-154.373-121.992-236.528-164.401
		c23.197,57.971,25.656,127.632,14.459,188.332c-4.801,26.029-19.785,57.263-46.204,55.682c-21.225-1.27-34.249-23.76-40.166-44.182
		c-17.105-59.028,3.894-161.097-58.462-241.935c-41.218-53.435-136.572-71.776-208.182-95.395
		c32.304,73.997,43.72,157.874,15.713,234.792c-16.294,44.744-45.318,86.828-45.006,134.445
		c0.229,35.215,16.709,68.174,22.756,102.866c6.047,34.693-3.389,77.631-36.192,90.441c-22.148,8.65-48.461-0.261-65.057-17.29
		c-16.595-17.029-24.758-40.698-28.309-64.208c-15.905-105.252,50.439-205.485,58.642-311.614
		c5.233-67.712-44.458-179.995-162.251-236.928c-46.073-22.269-96.874-20.848-139.871-27.736c2.858,5.212,5.182,9.477,6.734,12.176
		c29.237,50.825,53.224,104.668,71.38,160.424c7.617,23.388,14.275,48.22,9.427,72.334c-4.848,24.113-24.666,46.932-49.262,47.1
		c-21.913,0.149-40.483-17.23-50.404-36.77c-22.176-43.684-11.87-95.973-16.163-144.776c-4.196-47.695-26.303-81.083-46.879-120.539
		c-138.057-35.942-249.351,55.468-376.91-26.794l-0.001-0.001c0,0.001,0.001,0.001,0.001,0.001h-0.001
		c1.391,2.533,3.532,5.921,6.3,10.021c73.076,121.531-19.839,210.175,0.49,347.544c37.014,24.701,67.83,50.27,114.797,59.573
		c48.059,9.518,101.152,4.896,142.198,31.641c18.36,11.964,33.641,32.297,31.135,54.067c-2.813,24.434-27.631,41.683-52.125,43.909
		c-24.496,2.225-48.468-7.064-70.901-17.153c-53.48-24.048-104.431-53.687-151.816-88.221c-2.516-1.834-6.506-4.602-11.38-8.004
		c2.224,43.489-4.653,93.842,12.531,142.043c43.932,123.235,150.22,184.714,218.102,186.794
		c69.999,2.145,86.202-44.706,131.938-16.655c30.863,18.929,30.97,81.691-28.765,105.06
		c-52.513,20.543-196.451,25.688-279.953-29.624c15.78,73.735,23.759,170.509,72.451,217.235
		c73.66,70.689,175.282,66.81,234.242,84.145c175.606,51.63,349.252-91.839,364.836-28.108
		c24.544,100.369-419.711,157.955-571.243,78.108c33.326,86.24,74.395,196.865,138.005,252.84
		c63.611,55.973,121.258,103.551,208.694,110.605c86.575,6.984,175.432-19.727,243.807-73.289
		c26.66-20.885,51.871-46.478,84.869-54.101c32.999-7.623,75.486,14.711,72.251,48.424c-0.87,9.072-4.948,17.621-10.434,24.899
		c-18.688,24.789-51.541,34.165-82.44,37.152c-30.9,2.989-62.669,1.242-92.304,10.487c-43.888,13.691-76.823,49.282-115.355,74.356
		c-47.503,30.912-105.021,43.592-161.455,39.667c196.28,171.355,453.625,200.974,582.172,39.275
		c123.588-155.462,41.148-274.844,131.23-392.51c124.641,90.689,194.629,320.832,211.665,329.937
		c17.863,9.547,90.456,7.835,80.597-11.216c-9.012-17.416-135.749-252.168-250.385-356.38
		c124.306-74.842,212.484,40.952,380.466-65.279C1960.677,1242.853,1958.91,983.816,1809.661,770.245z M438.329,808.063
		c-9.6,4.692-20.793,4.708-31.425,3.643c-24.569-2.461-49.111-10.526-68.036-26.388c-8.59-7.201-16.416-18.66-11.913-28.924
		c3.697-8.431,14.101-11.681,23.308-11.691c9.206-0.009,18.491,2.21,27.541,0.513l-0.055,1.274
		c16.076,2.86,31.936,6.917,47.41,12.128c12.274,4.133,26.026,10.976,28.323,23.722C455.378,792.857,447.929,803.37,438.329,808.063
		z M666.09,1540.851c-4.547,2.347-9.902,2.441-15.009,2.134c-37.408-2.249-73.016-24.554-91.36-57.232l-4.011-13.055
		c2.422-10.399,5.419-21.702,14.05-27.992c15.136-11.036,36.005-0.028,51.261,10.842c18.245,12.999,37.008,26.549,48.525,45.762
		C677.193,1514.066,679.306,1534.031,666.09,1540.851z M1242.28,941.522c1.621,20.155-2.149,41.696-15.254,57.094
		c-13.106,15.398-37.041,22.434-54.489,12.218c-10.048-5.882-16.587-16.259-21.646-26.746c-11.97-24.808-17.654-54.49-6.866-79.833
		C1175.414,830.518,1237.84,886.321,1242.28,941.522z M1102.811,558.336c10.858-12.673,28.85-18.264,45.309-15.498
		c46.116,7.747,62.165,75.823,69.017,114.477c3.47,19.568,4.547,40.31-2.798,58.776c-7.345,18.466-24.855,33.984-44.728,33.858
		c-17.836-0.113-33.317-12.168-45.47-25.223c-9.958-10.696-18.829-22.607-24.571-36.046c-9.182-21.489-9.88-45.508-10.442-68.871
		C1088.612,598.315,1088.822,574.664,1102.811,558.336z M497.986,231.082c2.887-12.081,19.262-20.387,28.48-12.063l10.817,5.418
		c30.352,19.993,50.957,54.117,54.518,90.287c0.539,5.47,0.626,11.324-2.156,16.064c-6.941,11.82-26.14,7.904-35-2.554
		c-8.86-10.458-11.887-24.663-19.422-36.113c-6.826-10.377-17.018-18.012-25.28-27.285
		C501.68,255.563,495.098,243.162,497.986,231.082z M699.01,1170.918c-2.013,19.771-19.324,35.51-38.472,40.828
		c-19.148,5.315-39.654,2.013-58.736-3.541c-37.691-10.97-103.647-34.249-106.389-80.93c-0.978-16.66,6.515-33.946,20.282-43.379
		c17.738-12.153,41.274-9.818,62.589-6.991c23.167,3.072,46.971,6.349,67.349,17.788c12.742,7.155,23.63,17.255,33.193,28.307
		C690.496,1136.486,700.815,1153.174,699.01,1170.918z M758.565,1054.347c-10.39,7.067-23.952,7.957-36.297,5.608
		c-33.812-6.434-64.12-48.737-16.46-63.203c16.381-4.971,34.341,0.525,48.87,9.58c6.142,3.827,12.117,8.561,15.08,15.163
		C774.903,1032.959,768.955,1047.278,758.565,1054.347z M956.841,1600.8c-19.119,11.674-38.947,23.61-61.141,26.658
		c-14.734,2.024-33.926-3.873-35.008-18.706c-0.373-5.103,1.644-10.065,3.93-14.641c16.757-33.521,51.253-57.51,88.508-61.551
		l13.581,1.438c8.615,6.313,17.832,13.506,20.23,23.913C991.146,1576.167,972.828,1591.038,956.841,1600.8z M1460.978,703.027
		c-9.166-16.336-17.865-38.268-5.267-52.13c7.182-7.904,18.743-9.667,29.343-10.957l12.547,5.392
		c30.515,21.754,48.862,59.554,47.073,96.987c-0.244,5.11-0.913,10.424-3.736,14.692c-8.202,12.405-27.824,8.157-39.684-0.818
		C1483.392,742.675,1471.939,722.563,1460.978,703.027z M1523.391,1077.835c-10.088-3.504-16.249-13.442-21.598-22.685l0.031-13.656
		c8.025-36.605,35.585-68.321,70.713-81.375c4.796-1.782,9.945-3.252,14.979-2.333c14.63,2.672,18.429,22.387,14.832,36.818
		c-5.418,21.736-19.418,40.166-33.081,57.919C1557.842,1067.367,1541.087,1083.979,1523.391,1077.835z"/>
	<g>
		<path style="fill:#95A63A;" d="M1809.661,770.245c-2.169,56.528-20.962,112.349-56.803,156.25
			c-29.074,35.612-68.002,64.528-86.333,106.688c-12.378,28.469-14.059,60.241-20.354,90.641
			c-6.295,30.398-19.149,62.052-45.805,77.965c-7.825,4.671-16.763,7.805-25.877,7.696c-33.865-0.41-51.499-45.053-40.371-77.04
			c11.128-31.987,39.284-54.299,62.916-78.559c60.605-62.217,96.719-147.685,99.088-234.508
			c2.392-87.686-38.709-150.117-87.517-219.38c-48.808-69.263-154.373-121.992-236.528-164.401
			c23.197,57.971,25.656,127.632,14.459,188.332c-4.801,26.029-19.785,57.263-46.204,55.682
			c-21.225-1.27-34.249-23.76-40.166-44.182c-17.105-59.028,3.894-161.097-58.462-241.935
			c-41.218-53.435-136.572-71.776-208.182-95.395c32.304,73.997,43.72,157.874,15.713,234.792
			c-16.294,44.744-45.318,86.828-45.006,134.445c0.229,35.215,16.709,68.174,22.756,102.866
			c6.047,34.693-3.389,77.631-36.192,90.441c-22.148,8.65-48.461-0.261-65.057-17.29c-16.595-17.029-24.758-40.698-28.309-64.208
			c-15.905-105.252,50.439-205.485,58.642-311.614c5.233-67.712-44.458-179.995-162.251-236.928
			c-46.073-22.269-96.874-20.848-139.871-27.736c2.858,5.212,5.182,9.477,6.734,12.176c29.237,50.825,53.224,104.668,71.38,160.424
			c7.617,23.388,14.275,48.22,9.427,72.334c-4.848,24.113-24.666,46.932-49.262,47.1c-21.913,0.149-40.483-17.23-50.404-36.77
			c-22.176-43.684-11.87-95.973-16.163-144.776c-4.196-47.695-26.303-81.083-46.879-120.539
			c-138.057-35.942-249.351,55.468-376.91-26.794c0.052,0.057,828.232,919.812,1180.605,1268.389v-0.001
			c7.871-6.071,15.574-11.306,23.15-15.868c124.306-74.842,212.484,40.952,380.466-65.279
			C1960.677,1242.853,1958.91,983.816,1809.661,770.245z M589.645,330.789c-6.941,11.82-26.14,7.904-35-2.554
			c-8.86-10.458-11.887-24.663-19.422-36.113c-6.826-10.377-17.018-18.012-25.28-27.285c-8.262-9.273-14.845-21.674-11.957-33.754
			c2.887-12.081,19.262-20.387,28.48-12.063l10.817,5.418c30.352,19.993,50.957,54.117,54.518,90.287
			C592.34,320.194,592.427,326.048,589.645,330.789z M1124.142,724.726c-9.958-10.696-18.829-22.607-24.571-36.046
			c-9.182-21.489-9.88-45.508-10.442-68.871c-0.516-21.495-0.307-45.146,13.683-61.473c10.858-12.673,28.85-18.264,45.309-15.498
			c46.116,7.747,62.165,75.823,69.017,114.477c3.47,19.568,4.547,40.31-2.798,58.776c-7.345,18.466-24.855,33.984-44.728,33.858
			C1151.776,749.835,1136.295,737.78,1124.142,724.726z M1227.026,998.615c-13.106,15.398-37.041,22.434-54.489,12.218
			c-10.048-5.882-16.587-16.259-21.646-26.746c-11.97-24.808-17.654-54.49-6.866-79.833c31.389-73.736,93.815-17.932,98.255,37.268
			C1243.902,961.677,1240.131,983.218,1227.026,998.615z M1460.978,703.027c-9.166-16.336-17.865-38.268-5.267-52.13
			c7.182-7.904,18.743-9.667,29.343-10.957l12.547,5.392c30.515,21.754,48.862,59.554,47.073,96.987
			c-0.244,5.11-0.913,10.424-3.736,14.692c-8.202,12.405-27.824,8.157-39.684-0.818
			C1483.392,742.675,1471.939,722.563,1460.978,703.027z M1523.391,1077.835c-10.088-3.504-16.249-13.442-21.598-22.685
			l0.031-13.656c8.025-36.605,35.585-68.321,70.713-81.375c4.796-1.782,9.945-3.252,14.979-2.333
			c14.63,2.672,18.429,22.387,14.832,36.818c-5.418,21.736-19.418,40.166-33.081,57.919
			C1557.842,1067.367,1541.087,1083.979,1523.391,1077.835z"/>
		<path style="fill:#95A63A;" d="M201.868,166.021c1.391,2.533,3.532,5.921,6.3,10.021
			C206.172,172.723,204.118,169.392,201.868,166.021L201.868,166.021z"/>
	</g>
</g>
</svg>
